<?xml version="1.0" encoding="UTF-8" standalone="no"?>
<!-- Created with Inkscape (http://www.inkscape.org/) -->

<svg
   xmlns:dc="http://purl.org/dc/elements/1.1/"
   xmlns:cc="http://creativecommons.org/ns#"
   xmlns:rdf="http://www.w3.org/1999/02/22-rdf-syntax-ns#"
   xmlns:svg="http://www.w3.org/2000/svg"
   xmlns="http://www.w3.org/2000/svg"
   xmlns:sodipodi="http://sodipodi.sourceforge.net/DTD/sodipodi-0.dtd"
   xmlns:inkscape="http://www.inkscape.org/namespaces/inkscape"
   width="230.35033"
   height="63.987125"
   id="svg2"
   version="1.1"
   inkscape:version="0.48.5 r10040"
   sodipodi:docname="logo.svg">
  <defs
     id="defs4" />
  <sodipodi:namedview
     id="base"
     pagecolor="#ffffff"
     bordercolor="#666666"
     borderopacity="1.0"
     inkscape:pageopacity="0.0"
     inkscape:pageshadow="2"
     inkscape:zoom="0.86180109"
     inkscape:cx="198.15212"
     inkscape:cy="8.0856188"
     inkscape:document-units="px"
     inkscape:current-layer="text2987"
     showgrid="false"
     fit-margin-top="0"
     fit-margin-left="0"
     fit-margin-right="0"
     fit-margin-bottom="0"
     inkscape:window-width="941"
     inkscape:window-height="607"
     inkscape:window-x="0"
     inkscape:window-y="0"
     inkscape:window-maximized="0" />
  <metadata
     id="metadata7">
    <rdf:RDF>
      <cc:Work
         rdf:about="">
        <dc:format>image/svg+xml</dc:format>
        <dc:type
           rdf:resource="http://purl.org/dc/dcmitype/StillImage" />
        <dc:title></dc:title>
      </cc:Work>
    </rdf:RDF>
  </metadata>
  <g
     inkscape:label="Layer 1"
     inkscape:groupmode="layer"
     id="layer1"
     transform="translate(-257.77244,-384.65134)">
    <g
       style="font-size:89.94107056px;font-style:normal;font-weight:normal;line-height:125%;letter-spacing:0px;word-spacing:0px;fill:#ffffff;fill-opacity:1;stroke:none;font-family:Sans"
       id="text2987">
      <path
         d="m 257.77244,385.05013 0,13.5811 18.70774,0 0,49.46759 16.45922,0 0,-49.46759 18.88762,0 0,-13.5811 -54.05458,0"
         style="font-variant:normal;font-weight:bold;font-stretch:normal;font-family:Montserrat;-inkscape-font-specification:Montserrat Bold"
         id="path3785" />
      <path
         d="m 335.19624,398.90105 c -16.00949,0 -26.53261,9.89353 -26.53261,24.82374 0,15.02014 10.52312,24.91367 26.53261,24.91367 16.0095,0 26.62256,-9.89353 26.62256,-24.91367 0,-14.93021 -10.61306,-24.82374 -26.62256,-24.82374 m 0,12.95151 c 6.29587,0 10.52311,4.85683 10.52311,12.14205 0,7.19528 -4.22724,12.0521 -10.52311,12.0521 -6.20592,0 -10.43316,-4.85682 -10.43316,-12.0521 0,-7.28522 4.22724,-12.14205 10.43316,-12.14205"
         style="font-variant:normal;font-weight:bold;font-stretch:normal;font-family:Montserrat;-inkscape-font-specification:Montserrat Bold"
         id="path3787" />
      <path
         d="m 397.22607,385.05013 -27.1622,0 0,63.04869 26.53261,0 c 20.41661,0 34.17761,-12.77165 34.17761,-31.56932 0,-18.70772 -13.58112,-31.47937 -33.54802,-31.47937 m 0.44971,49.73741 -11.1527,0 0,-36.3362 10.34323,0 c 9.98345,0 17.0888,7.37518 17.0888,18.25804 0,10.79292 -6.74559,18.07816 -16.27933,18.07816"
         style="font-variant:normal;font-weight:bold;font-stretch:normal;font-family:Montserrat;-inkscape-font-specification:Montserrat Bold"
         id="path3789" />
      <path
         d="m 461.50021,398.90105 c -16.0095,0 -26.53262,9.89353 -26.53262,24.82374 0,15.02014 10.52312,24.91367 26.53262,24.91367 16.00949,0 26.62255,-9.89353 26.62255,-24.91367 0,-14.93021 -10.61306,-24.82374 -26.62255,-24.82374 m 0,12.95151 c 6.29587,0 10.5231,4.85683 10.5231,12.14205 0,7.19528 -4.22723,12.0521 -10.5231,12.0521 -6.20593,0 -10.43317,-4.85682 -10.43317,-12.0521 0,-7.28522 4.22724,-12.14205 10.43317,-12.14205"
         style="font-variant:normal;font-weight:bold;font-stretch:normal;font-family:Montserrat;-inkscape-font-specification:Montserrat Bold"
         id="path3791" />
    </g>
    <rect
       style="fill:#ffffff;fill-opacity:1;stroke:none"
       id="rect2993"
       width="170.21071"
       height="13.637059"
       x="317.91205"
       y="384.65134" />
  </g>
</svg>
